# xmcd
#
# Track frame offsets: 
#        150
#        1545
#        28360
#        49996
#        75228
#        107818
#        143638
#        175716
#        212983
#        224744
#        243771
#        272975
#        296862
#
# Disc length: 4575 seconds
#
# Revision: 0
# Processed by: cddbd v1.5.2PL0 Copyright (c) Steve Scherf et al.
# Submitted via: ExactAudioCopy v0.99pb4
#
DISCID=be11dd0d
DTITLE=The Groundhogs - Live at the New York Club: Switzerland 1991
DYEAR=1991
DGENRE=blues
TTITLE0=Greeting the Masses
TTITLE1=No Mo' Doggin'
TTITLE2=Split, Part 4
TTITLE3=I Want You to Love Me
TTITLE4=Split, Part 1
TTITLE5=Still a Fool
TTITLE6=Mistreated
TTITLE7=One More Chance
TTITLE8=Thank Christ for the Bomb
TTITLE9=Soldier
TTITLE10=Light My Light
TTITLE11=Me and the Devil
TTITLE12=Cherry Red
EXTD=
EXTT0=
EXTT1=
EXTT2=
EXTT3=
EXTT4=
EXTT5=
EXTT6=
EXTT7=
EXTT8=
EXTT9=
EXTT10=
EXTT11=
EXTT12=
PLAYORDER=
